<svg width="88" height="31" xmlns="http://www.w3.org/2000/svg"><g fill-rule="nonzero" fill="none"><path d="M85.787.149C86.957.149 88-.024 88 2.479L87.897 30H0V2.376C0 1.14.12 0 2.112 0l83.675.149Z" fill="#AAB2AB"/><path d="M86.351 0H1.648A1.655 1.655 0 0 0 0 1.658v28.968c0 .206.167.374.373.374h87.254a.374.374 0 0 0 .373-.374V1.658A1.655 1.655 0 0 0 86.351 0ZM1.898 1h84.203c.496 0 .899.395.899.882V21.42H26.62C24.416 25.339 20.166 28 15.288 28c-4.88 0-9.128-2.658-11.333-6.58H1V1.882C1 1.395 1.403 1 1.898 1Z" fill="#000"/><path d="M54.126 24.015c.231 0 .442.02.634.061.19.04.354.107.49.2a.932.932 0 0 1 .317.37 1.3 1.3 0 0 1 .112.572c0 .245-.055.449-.167.612-.11.163-.276.296-.494.4.3.087.525.238.673.453.148.216.222.475.222.78 0 .244-.048.456-.144.636a1.234 1.234 0 0 1-.384.438 1.696 1.696 0 0 1-.553.252 2.48 2.48 0 0 1-.637.082h-2.359v-4.856h2.29Zm-.137 1.964c.191 0 .348-.046.47-.136.123-.09.185-.237.185-.44a.563.563 0 0 0-.062-.278.46.46 0 0 0-.164-.171.693.693 0 0 0-.234-.084 1.582 1.582 0 0 0-.276-.024h-1.001v1.133h1.082Zm.063 2.06c.105 0 .204-.01.3-.03a.784.784 0 0 0 .252-.102.517.517 0 0 0 .174-.194.66.66 0 0 0 .064-.312c0-.25-.07-.427-.21-.534-.142-.106-.329-.16-.56-.16h-1.166v1.332h1.146Zm2.05-4.024h1.197l1.137 1.918 1.13-1.918h1.191l-1.802 2.992v1.864h-1.071V26.98l-1.782-2.965ZM25.12 14.377c.003 5.522-4.47 10-9.993 10.004-5.522.004-10.001-4.47-10.005-9.991v-.013c-.003-5.52 4.47-10 9.993-10.003 5.522-.004 10.002 4.47 10.005 9.992v.011Z" fill="#FFF"/><path d="M23.249 6.235c2.217 2.217 3.326 4.931 3.326 8.143 0 3.212-1.09 5.898-3.269 8.058-2.312 2.274-5.045 3.412-8.2 3.412-3.115 0-5.8-1.128-8.056-3.384-2.256-2.256-3.383-4.95-3.383-8.086 0-3.135 1.128-5.85 3.383-8.143 2.198-2.219 4.884-3.327 8.057-3.327 3.212 0 5.926 1.108 8.143 3.327h-.001ZM8.543 7.725c-1.875 1.894-2.811 4.112-2.811 6.656 0 2.544.927 4.742 2.782 6.597 1.855 1.855 4.064 2.782 6.627 2.782 2.563 0 4.79-.936 6.684-2.81 1.798-1.741 2.697-3.93 2.697-6.57 0-2.619-.914-4.842-2.74-6.668-1.827-1.826-4.04-2.74-6.64-2.74-2.602 0-4.801.918-6.599 2.754Zm4.933 5.537c-.286-.624-.715-.937-1.287-.937-1.01 0-1.516.68-1.516 2.042 0 1.36.505 2.04 1.516 2.04.667 0 1.144-.33 1.43-.995l1.402.746c-.667 1.187-1.67 1.78-3.007 1.78-1.03 0-1.855-.315-2.476-.947-.62-.632-.93-1.503-.93-2.613 0-1.091.32-1.958.96-2.598.639-.642 1.435-.963 2.39-.963 1.412 0 2.423.557 3.035 1.669l-1.517.776Zm6.593 0c-.287-.624-.708-.937-1.261-.937-1.031 0-1.548.68-1.548 2.042 0 1.36.517 2.04 1.548 2.04.669 0 1.136-.33 1.404-.995l1.432.746c-.667 1.187-1.667 1.78-3 1.78-1.03 0-1.854-.315-2.473-.947-.618-.632-.929-1.503-.929-2.613 0-1.091.316-1.958.944-2.598.629-.642 1.428-.963 2.4-.963 1.41 0 2.42.557 3.029 1.669l-1.546.776Z" fill="#000"/><g transform="translate(47.416 2.483)"><circle fill="#FFF" cx="8.509" cy="8.672" r="7.872"/><path d="M10.787 6.395a.55.55 0 0 0-.549-.549H6.762a.55.55 0 0 0-.549.55v3.476h.969v4.117h2.635V9.872h.97V6.395Z" fill="#000"/><ellipse fill="#000" cx="8.5" cy="4.199" rx="1.19" ry="1.189"/><path d="M8.49 0C6.133 0 4.14.822 2.51 2.465.836 4.165 0 6.177 0 8.5c0 2.322.836 4.32 2.51 5.991 1.674 1.672 3.667 2.507 5.98 2.507 2.34 0 4.369-.842 6.084-2.528C16.191 12.87 17 10.88 17 8.5s-.823-4.393-2.467-6.035C12.886.822 10.873 0 8.489 0Zm.021 1.53c1.93 0 3.568.68 4.914 2.04 1.363 1.345 2.043 2.988 2.043 4.93 0 1.954-.666 3.576-2 4.865-1.405 1.388-3.056 2.083-4.957 2.083-1.902 0-3.54-.687-4.915-2.062-1.377-1.374-2.064-3.003-2.064-4.887 0-1.884.695-3.527 2.085-4.93C4.95 2.21 6.582 1.53 8.51 1.53Z" fill="#000"/></g></g></svg>
