<svg width="64" height="64" xmlns="http://www.w3.org/2000/svg"><path d="M31.997 0C14.33 0 0 14.327 0 32.001c0 14.138 9.168 26.131 21.884 30.363 1.601.294 2.185-.694 2.185-1.542 0-.759-.028-2.772-.044-5.442-8.9 1.933-10.779-4.29-10.779-4.29-1.455-3.698-3.553-4.682-3.553-4.682-2.906-1.984.22-1.945.22-1.945 3.212.226 4.901 3.299 4.901 3.299 2.854 4.89 7.49 3.477 9.313 2.658.291-2.067 1.118-3.477 2.032-4.277-7.106-.807-14.577-3.554-14.577-15.816 0-3.493 1.248-6.35 3.295-8.586-.33-.81-1.428-4.065.314-8.47 0 0 2.686-.86 8.799 3.282 2.552-.712 5.29-1.065 8.011-1.079 2.719.014 5.455.367 8.011 1.079 6.11-4.142 8.791-3.281 8.791-3.281 1.746 4.404.648 7.66.32 8.469 2.051 2.235 3.289 5.093 3.289 8.586 0 12.294-7.483 14.999-14.61 15.79 1.147.989 2.17 2.941 2.17 5.927 0 4.277-.039 7.728-.039 8.778 0 .856.578 1.852 2.2 1.54C54.84 58.12 64 46.135 64 32 64 14.327 49.671 0 31.997 0" fill="#161514" fill-rule="evenodd"/></svg>
