<svg width="544" height="304" fill="none" xmlns="http://www.w3.org/2000/svg"><g clip-path="url(#a)"><path d="M271.234 280.663c118.204 0 214.028-5.884 214.028-13.142 0-7.258-95.824-13.141-214.028-13.141s-214.028 5.883-214.028 13.141 95.824 13.142 214.028 13.142Z" fill="#000" fill-opacity=".07"/><path opacity=".1" d="M271.234 276.002c100.684 0 182.304-3.892 182.304-8.692 0-4.801-81.62-8.693-182.304-8.693S88.93 262.509 88.93 267.31c0 4.8 81.62 8.692 182.304 8.692Z" fill="#000"/><path d="M116.152 264.832V16.687h316.082v248.145H116.152Z" fill="#465055" stroke="#373F43" stroke-width="2"/><path d="M270.576 49.868h-78.472a.956.956 0 0 1-.006-1.913h78.478c.529 0 .951.43.951.96a.955.955 0 0 1-.951.953Z" fill="#FF4B7D"/><path d="M356.476 60.367H233.057a.952.952 0 0 1 0-1.907h123.419c.529 0 .951.43.951.954 0 .53-.428.953-.951.953Z" fill="#FFF000"/><path d="M270.958 70.866h-78.473a.952.952 0 0 1 0-1.906h78.473a.952.952 0 0 1 0 1.906Z" fill="#00C800"/><path d="M356.476 71.06h-78.472a.952.952 0 0 1 0-1.906h78.472c.529 0 .951.43.951.953a.955.955 0 0 1-.951.954Z" fill="#FF4B7D"/><path d="M271.146 81.366h-78.473a.952.952 0 0 1-.951-.954c0-.53.429-.953.951-.953h78.473c.528 0 .951.43.951.953 0 .53-.423.954-.951.954Z" fill="#FF912D"/><path d="M271.339 91.87h-78.472a.952.952 0 0 1-.951-.953c0-.53.428-.953.951-.953h78.472a.952.952 0 0 1 0 1.907Z" fill="#FF4B7D"/><path d="M306.956 50.056H284.48a.952.952 0 0 1-.951-.953c0-.53.428-.953.951-.953h22.476a.952.952 0 0 1 0 1.907Z" fill="#FF912D"/><path d="M306.956 81.366H284.48a.952.952 0 0 1-.951-.954c0-.53.428-.953.951-.953h22.476a.952.952 0 0 1 0 1.907Z" fill="#F2F2F2"/><path d="M306.956 91.677H284.48a.957.957 0 0 1-.006-1.913h22.482a.957.957 0 0 1 .006 1.913h-.006Z" fill="#00C800"/><path d="M344.669 91.677h-22.476a.954.954 0 0 1-.952-.96.96.96 0 0 1 .952-.953h22.476a.957.957 0 0 1 .005 1.913h-.005Z" fill="#FF912D"/><path d="M214.386 60.367H191.91a.952.952 0 0 1-.951-.953c0-.53.428-.954.951-.954h22.476c.528 0 .951.43.951.954a.945.945 0 0 1-.951.953ZM270.67 204.502h-78.472a.952.952 0 1 1 0-1.906h78.472c.529 0 .951.429.951.953 0 .53-.422.953-.951.953Z" fill="#00C800"/><path d="M270.288 225.507h-78.472a.952.952 0 0 1-.951-.954c0-.529.428-.953.951-.953h78.472a.953.953 0 0 1 0 1.907Z" fill="#FF4B7D"/><path d="M270.482 236.006H192.01a.953.953 0 0 1 0-1.907h78.472c.529 0 .951.43.951.954a.956.956 0 0 1-.951.953Z" fill="#FFF000"/><path d="M304.003 225.695h-22.477a.952.952 0 0 1 0-1.907h22.477a.953.953 0 0 1 0 1.907Z" fill="#FF912D"/><path d="M304.003 236.006h-22.477a.952.952 0 0 1 0-1.907h22.477a.953.953 0 0 1 0 1.907Z" fill="#00C800"/><path d="M341.715 225.695h-22.476a.952.952 0 0 1-.951-.953c0-.53.428-.954.951-.954h22.476c.529 0 .951.43.951.954a.956.956 0 0 1-.951.953Z" fill="#F2F2F2"/><path d="M356.57 215.008H233.151a.953.953 0 0 1 0-1.907H356.57c.529 0 .951.429.951.953a.956.956 0 0 1-.951.954Z" fill="#FF912D"/><path d="M214.486 215.008H192.01a.953.953 0 0 1 0-1.907h22.476c.528 0 .951.429.951.953a.956.956 0 0 1-.951.954Z" fill="#F2F2F2"/><path d="M356.57 246.694H233.151a.953.953 0 0 1 0-1.907H356.57c.529 0 .951.429.951.953 0 .53-.428.954-.951.954Z" fill="#FF4B7D"/><path d="M214.486 246.694H192.01a.953.953 0 0 1 0-1.907h22.476a.953.953 0 0 1 0 1.907Z" fill="#FF912D"/><path d="m251.717 116.065-30.473 30.168 30.473 30.162 6.858-6.874-23.046-23.099 23.24-23.288-7.052-7.069ZM296.669 116.065l30.473 30.168-30.473 30.162-6.858-6.874 23.046-23.099-23.234-23.288 7.046-7.069ZM123.5 27a3.5 3.5 0 1 0 0-7 3.5 3.5 0 0 0 0 7Z" fill="#FF4B7D"/><path d="M132.5 27a3.5 3.5 0 1 0 0-7 3.5 3.5 0 0 0 0 7Z" fill="#FF912D"/><path d="M141.5 27a3.5 3.5 0 1 0 0-7 3.5 3.5 0 0 0 0 7Z" fill="#00C800"/><path opacity=".1" d="M433 29H117.131v2H433v-2Z" fill="#000"/><path d="M521.078 206.174c0 27.036-16.035 36.476-35.816 36.476-19.782 0-35.817-9.44-35.817-36.476 0-27.037 35.817-61.43 35.817-61.43s35.816 34.393 35.816 61.43Z" fill="#D2DCDC"/><path d="m483.958 238.519.37-22.629 15.266-27.996-15.213 24.447.164-10.175 10.522-20.251-10.475 17.555.294-18.297 11.267-16.125-11.22 13.247.188-33.551-1.163 44.416.094-1.831-11.455-17.573 11.273 21.093-1.069 20.433-.035-.541-13.205-18.492 13.17 20.41-.135 2.554-.024.036.012.212-2.713 51.848h3.623l.429-26.777 13.134-20.363-13.099 18.35Z" fill="#39374E"/><path d="M104.696 132.92c-.728 1.954-1.967 3.796-3.764 4.844l16.951 3.466a17.916 17.916 0 0 1-.235-7.574 4.273 4.273 0 0 0 .1-1.872c-.317-1.23-1.703-1.824-2.941-2.107-3.095-.706-5.831-1.088-8.708-2.454-.875 1.507-.751 3.961-1.403 5.697Z" fill="#FBBEBE"/><path d="M100.615 257.599c.317 2.254.722 4.52.611 6.797-.153 3.178-1.292 6.239-1.503 9.411-.159 2.372.205 4.767-.124 7.121-.211 1.507-.698 2.96-1.004 4.449a18.44 18.44 0 0 0 2.948 14.101c.205.347.505.636.857.83.341.124.699.177 1.063.141 3.57-.07 7.122-.394 10.645-.971.258-.012.505-.118.681-.3a.927.927 0 0 0 .147-.406c.651-3.366-.834-6.739-1.216-10.146-.405-3.637.464-7.28 1.333-10.841a48.403 48.403 0 0 1 1.468-5.185c.417-1.141.922-2.254 1.286-3.419.511-1.824.828-3.702.933-5.597.253-2.99.388-5.985.4-8.987a37.786 37.786 0 0 0-.705-8.486c-.793-3.537-2.419-6.815-4.034-10.064a6.4 6.4 0 0 0-2.378 1.13 53.322 53.322 0 0 1-6.493 3.596c-1.509.7-4.451 1.201-5.408 2.666-.945 1.442-.335 4.39-.264 5.979.129 2.743.381 5.468.757 8.181ZM63.601 280.669a18.144 18.144 0 0 1-3.458 1.483c-2.15.589-4.445.371-6.617.877-.887.206-1.856.636-2.138 1.507-.205.635.018 1.324.235 1.959 2.396 7.045 3.84 14.531 7.669 20.911a31.715 31.715 0 0 0 5.918 7.203c.869.783 1.855 1.554 3.018 1.677a3.067 3.067 0 0 0 3.118-4.313c-.34-.766-.98-1.354-1.392-2.084a8.007 8.007 0 0 1-.769-2.966c-.376-3.013-.74-6.162.3-9.016.698-1.913 1.978-3.543 3.047-5.279 1.068-1.736 1.955-3.72 1.714-5.744-.164-1.383-.834-2.643-1.544-3.837-.71-1.195-2.12-4.414-3.546-4.814-1.48-.418-4.263 1.771-5.555 2.436Z" fill="#2F2E41"/><path d="M102.699 305.004c.024.683-.07 1.36-.281 2.013-.447 1.183-1.556 1.995-2.132 3.125-.798 1.571-.434 3.467.094 5.144.329 1.053.764 2.148 1.656 2.801a5.48 5.48 0 0 0 2.519.807c7.627 1.059 15.377.453 23.075.67 1.403.042 2.889.089 4.116-.6 1.227-.688 1.984-2.413 1.151-3.549-.746-1.018-2.226-1.006-3.488-1.065a14.311 14.311 0 0 1-8.848-3.655 6.365 6.365 0 0 1-1.239-1.43 8.7 8.7 0 0 1-.652-1.489 66.357 66.357 0 0 0-3.84-8.527c-.417-.771-.881-1.572-1.65-1.984a4.385 4.385 0 0 0-1.791-.394c-1.92-.124-6.887-.777-8.372.718-1.374 1.383-.288 5.662-.318 7.415Z" fill="#2F2E41"/><path d="M126.735 122.814c.479-6.766-4.604-12.641-11.355-13.122-6.75-.481-12.612 4.614-13.092 11.381-.48 6.766 4.604 12.641 11.355 13.122 6.75.481 12.612-4.614 13.092-11.381Z" fill="#FBBEBE"/><path d="M99.535 132.332a13.228 13.228 0 0 1 11.555.3c2.172 1.147 3.975 2.878 5.742 4.59 1.632 1.578 3.37 3.378 3.482 5.644.059 1.101-.288 2.172-.458 3.261a10.936 10.936 0 0 0 5.83 11.223c1.345 2.248 1.627 4.973 1.644 7.598.077 9.934-3.047 19.992-.816 29.673.523 2.272 1.339 4.473 1.791 6.762.587 2.966.558 6.009.863 9.016a40.634 40.634 0 0 0 2.161 9.54c-.74 1.177-2.272 1.625-3.658 1.53-1.38-.094-2.677-.694-3.91-1.33-5.972-3.066-11.444-7.103-17.633-9.71-4.092-1.725-8.454-2.796-12.424-4.785-3.969-1.989-7.662-5.15-8.877-9.428-.523-1.848-.558-3.802-.587-5.726-.124-8.104-.235-16.297 1.526-24.206 1.55-6.974 4.545-13.648 5.196-20.769.212-2.319.218-4.797 1.51-6.733 1.825-2.719 5.765-3.425 7.063-6.45Z" fill="#2F2E41"/><path d="M107.538 122.115c.722-.942 2.113-1.071 3.27-.795 1.151.277 2.219.877 3.382 1.101.534.153 1.11.071 1.585-.224.405-.4.652-.941.681-1.512.411-2.437.505-4.908.282-7.368a2.296 2.296 0 0 1 .065-1.036c.288-.695 1.168-.865 1.885-1.089a5.635 5.635 0 0 0 3.81-5.779 2.287 2.287 0 0 0-.699-1.583c-.499-.406-1.191-.43-1.831-.436a625.996 625.996 0 0 0-9.882 0c-1.221.012-2.501.041-3.558.647-.781.454-1.362 1.177-2.067 1.742-1.832 1.484-4.304 1.784-6.53 2.543a6.513 6.513 0 0 0-2.864 1.712c-.74.848-1.098 2.107-.635 3.137.241.43.505.842.799 1.23 1.315 2.107.44 4.832.634 7.31.247 3.09 4.809 8.104 7.903 8.834 5.003 1.182 2.114-6.404 3.77-8.434Z" fill="#2F2E41"/><path opacity=".1" d="M100.615 257.599c.317 2.254.722 4.52.611 6.797-.153 3.178-1.292 6.239-1.503 9.411-.159 2.372.205 4.767-.124 7.121-.211 1.507-.698 2.96-1.004 4.449a18.44 18.44 0 0 0 2.948 14.101c.205.347.505.636.857.83.341.124.699.177 1.063.141 3.57-.07 7.122-.394 10.645-.971.258-.012.505-.118.681-.3a.927.927 0 0 0 .147-.406c.651-3.366-.834-6.739-1.216-10.146-.405-3.637.464-7.28 1.333-10.841a48.403 48.403 0 0 1 1.468-5.185c.417-1.141.922-2.254 1.286-3.419.511-1.824.828-3.702.933-5.597.253-2.99.388-5.985.4-8.987a37.786 37.786 0 0 0-.705-8.486c-.793-3.537-2.419-6.815-4.034-10.064a6.4 6.4 0 0 0-2.378 1.13 53.322 53.322 0 0 1-6.493 3.596c-1.509.7-4.451 1.201-5.408 2.666-.945 1.442-.335 4.39-.264 5.979.129 2.743.381 5.468.757 8.181Z" fill="#000"/><path d="M84.046 209.411c-1.627 4.39.763 9.139 2.841 13.336 5.12 10.34 8.679 21.369 12.213 32.357.265.823.529 1.718.235 2.53a3.29 3.29 0 0 1-1.192 1.418c-2.436 1.854-5.543 2.519-8.449 3.49a38.224 38.224 0 0 0-8.014 3.767c-2.108 1.307-4.075 2.819-6.048 4.326l-6.265 4.796a4.205 4.205 0 0 0-1.045 1.018c-.605.948-.358 2.19-.059 3.278a56.26 56.26 0 0 0 3.065 8.393 2.92 2.92 0 0 0 1.11 1.459c.98.53 2.172-.17 2.918-.994s1.392-1.848 2.443-2.202c1.05-.353 2.207.077 3.305-.082 1.773-.247 2.954-1.889 4.234-3.148 5.231-5.144 13.962-4.773 19.716-9.317a25.572 25.572 0 0 1 2.636-2.066c.975-.576 2.079-.894 3.083-1.4 3.071-1.548 4.996-4.75 6.03-8.039 1.033-3.284 1.327-6.751 2.072-10.117.382-1.736.887-3.461 1.063-5.232a27.775 27.775 0 0 0-.105-4.944l-2.079-25.742c-.17-2.095-.341-4.196-.669-6.273-6.165.223-12.325.47-18.496.541-4.885.053-9.881.4-14.543-1.153Z" fill="#2F2E41"/><path d="M81.78 215.431c.833 1.348 2.87 1.318 4.274.583 1.403-.736 2.49-1.984 3.898-2.713 1.891-.983 4.122-.948 6.248-.889 3.37.094 6.775.194 10.017 1.124 3.352.959 6.617 2.801 10.081 2.431.605-.065 1.262-.236 1.591-.748.194-.37.282-.782.264-1.2l.112-3.037a2.719 2.719 0 0 0-.241-1.536 2.549 2.549 0 0 0-1.151-.883c-4.932-2.395-10.557-2.837-16.035-3.025a209.698 209.698 0 0 0-8.355-.118c-2.366.012-5.202-.329-7.504.306-3.082.842-4.761 7.18-3.2 9.705Z" fill="#2F2E41"/><path d="M112.757 135.939c-6.464-.058-12.324-4.331-18.782-4.437a4.877 4.877 0 0 0-2.279.394c-.898.453-1.491 1.336-2.178 2.078-1.908 2.071-4.68 3.184-6.64 5.208-1.844 1.901-2.866 4.726-2.138 7.274.728 2.543 3.47 4.497 6.042 3.885a15.565 15.565 0 0 1 6.065-8.257 31.08 31.08 0 0 1 4.739-2.496c2.906-1.318 6.153-2.666 9.188-1.677 1.116.424 2.173 1 3.136 1.713l5.055 3.401c-.599-2.33-1.127-4.943-2.208-7.086Z" fill="#00DCD2"/><path d="M86.03 148.081c-.857 1.071.376 2.63.188 3.99-.123.906-.869 1.595-1.18 2.454-.323.889-.153 1.877-.27 2.813a12.492 12.492 0 0 1-.54 2.007 36.604 36.604 0 0 0-1.14 5.944l-1.132 8.469a32.552 32.552 0 0 0-.359 3.849c.059.965-.006 1.93-.193 2.878-.253.924-.805 1.736-1.18 2.619-.376.882-.547 1.954-.042 2.766-1.69 1.412-2.19 4.178-1.01 6.032.224.288.4.612.523.959.065.483-.012.977-.229 1.419l-1.145 3.054c-.294.783-.388 1.972.429 2.154a7.25 7.25 0 0 0-1.545 2.443 2.927 2.927 0 0 0 .411 2.76c.282.247.529.541.717.871.111.459.082.935-.082 1.377a5.065 5.065 0 0 0 .622 3.955 3.548 3.548 0 0 0 3.558 1.53c2.29-.518 4.345-1.336 6.653-.912 4.967.912 9.952 1.83 14.766 3.372 5.49 1.76 10.81 4.337 16.552 4.873.376.076.769.018 1.11-.171.293-.276.475-.653.511-1.053.593-2.778 1.18-5.556 1.773-8.34a86.67 86.67 0 0 0 1.632-9.339c.2-2.025.258-4.067.317-6.103l.458-16.208a16.337 16.337 0 0 0-.928-7.045l-2.63-8.416c-1.503-4.802-4.944-9.063-6.171-13.942-.775-3.09-1.35-6.403-3.429-8.81-2.965-3.431-8.097-3.967-12.588-3.378-2.032.265-4.075.724-5.83 1.783-2.032 1.218-3.524 3.143-4.974 5.02-1.192 1.56-2.401 2.801-3.623 4.326Z" fill="#00DCD2"/><path d="M96.517 195.757c.37 1.601 1.145 3.072 1.62 4.643.799 2.631.728 5.468 1.527 8.098.335 1.107.816 2.166 1.057 3.296.558 2.631-.259 5.356-1.268 7.851-1.016 2.495-2.25 4.95-2.578 7.621-.229 1.884.1 4.008 1.55 5.227 1.503 1.265 3.687 1.182 5.643 1.012a5.836 5.836 0 0 0 2.049-.43c1.497-.712 2.125-2.483 2.477-4.108 1.175-5.432.84-11.07.5-16.62l-.893-14.513c-.17-2.795-.358-5.644-1.215-8.327-.312-.977-.858-2.949-1.744-3.573-.881-.617-3.394-.647-4.486-.694-5.126-.23-5.067 6.927-4.24 10.517Z" fill="#FBBEBE"/><path d="M102.189 142.166c-1.045-.547-2.36-.312-3.37.3a10.355 10.355 0 0 0-2.525 2.46c-2.26 2.76-4.65 5.932-4.316 9.487.123 1.336.634 2.596.98 3.89 1.516 5.674-.158 11.671.03 17.544.112 3.39.846 6.727 1.58 10.04.146.677.387 1.46 1.039 1.689.487.171 1.021-.047 1.503-.235a11.96 11.96 0 0 1 10.98 1.389c1.209-.647.757-2.695.487-4.049-.805-4.008.288-8.145 1.62-12.012 1.333-3.866 2.924-7.727 3.142-11.812.252-4.625-1.28-9.145-2.789-13.524-.329-.953-.693-1.96-1.456-2.619a5.736 5.736 0 0 0-2.202-1.006c-1.597-.489-3.224-.759-4.703-1.542Z" fill="#2F2E41"/><path opacity=".1" d="M481 271c34.794 0 63-2.686 63-6s-28.206-6-63-6-63 2.686-63 6 28.206 6 63 6Z" fill="#000"/><path d="M478.445 299.331c1.474 2.366 1.773 14.501 1.773 14.501l10.334-6.509-2.954-10.658-9.153 2.666Z" fill="#FFB9B9"/><path d="m427.087 247.3 1.474 19.833 35.728.889 15.647 35.811 8.561-3.554s-9.747-33.74-14.174-44.399c-4.427-10.658-21.261-2.96-21.261-2.96l-1.473-2.96-24.502-2.66ZM415.772 167.773a14.01 14.01 0 0 0-2.736 7.197c-.317 3.172-1.244 8.251-3.945 10.923-4.11 4.067-5.484 7.115-5.484 7.115l1.368 1.525c0-3.049 1.826-3.561 1.826-3.561l-.458 3.561c12.336 11.688 39.744 1.018 39.744 1.018l-.916-9.152c2.284 1.019 3.2 8.134 3.2 8.134l3.652-1.018s-6.394-11.182-10.504-21.346c-4.11-10.164-10.504-7.627-10.504-7.627-7.533-4.038-12.512-.295-15.243 3.231Z" fill="#2F2E41"/><path d="M440.674 245.817s-12.994 0-20.081 4.143c-2.278 1.33-2.942 3.731-2.789 6.379.399 6.916 6.03 12.377 12.929 12.801l19.981 1.236c-2.954 8.286 3.84 40.549 3.84 40.549l10.633-1.477s-1.474-10.953-1.18-11.541c.293-.595 2.953-23.676 1.18-35.812-1.773-12.135-25.987-7.103-25.987-7.103l1.474-9.175Z" fill="#2F2E41"/><path d="M438.185 184.775c.94-5.811-2.996-11.286-8.793-12.229-5.797-.943-11.259 3.003-12.2 8.814-.94 5.81 2.996 11.285 8.793 12.228 5.797.943 11.259-3.003 12.2-8.813Z" fill="#FFB9B9"/><path d="M423.247 191.061c3.84 5.626-.887 8.88-.887 8.88l-2.067 15.39s22.148 2.072 25.988-.889c3.84-2.96-4.427-12.729-7.381-13.612-2.953-.889-3.546-13.024-3.546-13.024l-12.107 3.255Z" fill="#FFB9B9"/><path d="m423.828 198.364-11.649-1.824-1.327 12.576s.593 28.12 0 33.152 10.04 10.658 10.04 10.658 15.354-1.183 18.308-2.666c2.953-1.477 12.4 1.477 12.4 1.477 1.051.059 2.908-10.89 3.9-11.237 1.773-.595-1.5-12.896-1.879-25.097C453.5 211.5 453.5 204 451.5 199.5c-1.464-3.295-1.5-2.5-3-3.5-1.316-.877-5 .5-5 .5l-2 .5-3.786 1.17-2.067 9.769-11.819-9.575Z" fill="#00DCD2"/><path opacity=".15" d="m416.606 226.136 11.808 4.732-12.988-2.66-.887-16.873 2.067 14.801ZM450.067 226.801l11.807 4.732-12.987-2.66L448 212l2.067 14.801Z" fill="#000"/><path d="m438.906 179.525-19.505.465-2.325-9.775h21.83v9.31Z" fill="#2F2E41"/><path d="m411.721 231.204 29.252 1.106s10.903-6.02 12.988 1.783c2.084 7.804-13.487 4.232-13.487 4.232l-27.878.524-.875-7.645Z" fill="#FFB9B9"/><path d="m414.24 229.097 13.581.888 1.773 9.175s-16.534-.294-23.034-.594c-6.494-.294 0-27.819.887-36.112.886-8.286 5.313-5.92 5.313-5.92l2.66 2.071-1.18 30.492Z" fill="#00DCD2"/><path d="m465.818 224.319-40.732 3.171a1.573 1.573 0 0 0-1.446 1.689l1.93 24.782a1.572 1.572 0 0 0 1.69 1.445l40.731-3.171a1.573 1.573 0 0 0 1.446-1.689l-1.929-24.782a1.573 1.573 0 0 0-1.69-1.445Z" fill="#3F3D56"/><path d="M446.616 240.859a.999.999 0 1 0-.155-1.993.999.999 0 1 0 .155 1.993Z" fill="#fff"/></g><defs><clipPath id="a"><path fill="#fff" transform="translate(0 -53)" d="M0 0h544v385H0z"/></clipPath></defs></svg>
