<svg width="313" height="209" xmlns="http://www.w3.org/2000/svg"><defs><linearGradient x1="50.023%" y1="100.006%" x2="50.023%" y2="-.009%" id="a"><stop stop-color="gray" stop-opacity=".25" offset="0%"/><stop stop-color="gray" stop-opacity=".12" offset="54%"/><stop stop-color="gray" stop-opacity=".1" offset="100%"/></linearGradient></defs><g fill="none" fill-rule="evenodd"><path d="M185.479 33.582c-19.511-.679-38.094-6.976-55.842-13.867-17.748-6.891-35.32-14.527-54.365-18.178C63.023-.81 49.017-1.143 39.147 5.423c-9.497 6.33-12.566 17.228-14.218 27.348-1.24 7.618-1.972 15.63 1.432 22.76 2.36 4.95 6.554 9.11 9.454 13.851 10.088 16.496 2.958 36.838-7.977 52.944-5.125 7.555-11.076 14.772-15.034 22.808-3.959 8.037-5.789 17.258-2.328 25.464 3.434 8.139 11.613 14.241 20.47 18.536 17.995 8.724 39.192 11.223 59.88 12.637 45.769 3.132 91.786 1.776 137.677.419 16.985-.503 34.042-1.013 50.75-3.638 9.279-1.459 18.86-3.775 25.595-9.345 8.55-7.094 10.669-19.106 4.941-27.999-9.611-14.919-36.177-18.627-42.903-34.637-3.699-8.812.1-18.63 5.472-26.802 11.529-17.536 30.85-32.916 31.869-52.96.7-13.764-8.589-27.55-22.951-34.064-15.056-6.828-35.93-5.968-47.03 5.333-11.444 11.624-31.54 16.1-48.767 15.504Z" fill="#00DCD2" fill-rule="nonzero" opacity=".1"/><path d="M135.28 196.394c-.302-1.091-.603-2.194-1.206-3.144a10.986 10.986 0 0 0-1.975-2.161c-2.186-1.984-4.869-3.998-7.766-3.497-.896.198-1.762.514-2.574.94-.422.196-.848.392-1.282.558a6.383 6.383 0 0 1-3.865.338c-.663-.178-1.28-.498-1.935-.697a6.279 6.279 0 0 0-.95-.205 16.22 16.22 0 0 0 1.836-.967c3.25-1.99 5.843-5.586 5.481-9.433-.124-1.293-.567-2.532-1.007-3.753l-1.157-3.201c-.5-1.387-1.019-2.801-1.933-3.952-1.016-1.284-2.463-2.156-3.958-2.804-3.21-1.395-6.72-1.887-10.184-2.363l-.24-.033V124.6a2.41 2.41 0 0 0-2.413-2.411H95.6l-.603-3.684c-.573-3.5-1.167-7.063-2.78-10.213-1.055-2.062-2.734-4.031-4.998-4.435a4.837 4.837 0 0 1-1.3-.301c-.663-.326-1.025-1.05-1.534-1.583-1.315-1.377-3.452-1.398-5.213-2.11-1.555-.618-2.827-1.782-4.244-2.677-1.417-.895-3.178-1.531-4.746-.95 0 .115-.02.23-.033.34l-1.007-.463c-1.085-.504-2.191-1.02-3.063-1.845-1.118-1.055-1.715-2.454-2.18-3.94a22.017 22.017 0 0 1-.141-.467 13.996 13.996 0 0 0 3.75-7.16l.245.793c.055.178.119.353.193.524.124.332.332.626.602.854a1.056 1.056 0 0 0 .513.214.964.964 0 0 0 .374-.028 1.425 1.425 0 0 0 .904-.838c.048-.118.084-.241.106-.367.011-.076.018-.153.02-.23v-.313c0-.03 0-.1-.014-.15v-.08c0-.06-.018-.12-.03-.177-.012-.057 0-.033 0-.048-.015-.075-.034-.154-.049-.23v-.056c0-.019-.027-.124-.042-.187-.015-.064-.021-.082-.03-.124v-.018a10.361 10.361 0 0 1-.25-3.542c.18-1.56.468-3.107.862-4.627l.063-.275c.024-.105.049-.21.07-.32.048-.216.096-.433.141-.653l.109-.555.081-.495v-.063c.17-1.12.205-2.256.106-3.385-.139-1.577-.627-3.069-1.698-4.257-.756-.84-1.754-1.462-2.457-2.345-.657-.826-1.028-1.845-1.709-2.656-1.881-2.246-6.71-3.976-9.674-4.277-3.395-.344-8.879.524-11.616 2.529-1.013.738-1.706 1.809-2.412 2.821-1.296 1.885-2.767 3.766-4.845 4.824-.783.398-1.682.699-2.203 1.392a3.765 3.765 0 0 0-.588 1.562c-.4 1.963-.608 3.96-.621 5.963v.753c.006.751.166 1.493.47 2.18.048.102.103.202.16.301l.036.064c.365.52.687 1.07.965 1.642.069.16.118.329.147.5.052.442.024.89-.084 1.321 0 .067-.027.133-.04.2l-.026.129c0 .045 0 .09-.024.132-.024.13-.046.26-.064.386-.045.349-.023.703.067 1.043a1.373 1.373 0 0 0 .669.905c.172.082.354.139.543.168.19.034.382.055.57.097.24.055.472.14.69.256.208.1.404.226.582.374.087.08.17.164.25.253a4.22 4.22 0 0 1 .609.91c.216.437.388.893.515 1.363.079.28.145.564.202.847.027.127.052.253.073.377.02.124.042.25.06.374a.88.88 0 0 0 .241-.048c.443-.16.69-.676.83-1.176.023-.084.044-.166.062-.247.07-.302.142-.633.212-.95a13.979 13.979 0 0 0 5.501 6.06c.085.25.166.497.239.75.395 1.366.584 2.794-.1 3.988-.488.847-1.308 1.369-2.225 1.73a1.472 1.472 0 0 0-.497-.421c-.793-.398-1.746.084-2.412.678-1.206 1.091-2.189 2.656-3.774 3.015-.573.132-1.206.105-1.683.455a3.906 3.906 0 0 0-.78 1.025 3.587 3.587 0 0 1-3.085 1.537c-.551-.027-1.205-.154-1.582.25-.28.302-.302.778-.603 1.065-.404.397-1.068.205-1.631.18-1.074-.045-2.071.649-2.683 1.538-.612.889-.905 1.953-1.206 3.014v.018c-.078.057-.151.118-.22.184a3.189 3.189 0 0 0-.667 1.08 51.502 51.502 0 0 0-4.25 17.538c.006.295-.06.587-.193.85a4.114 4.114 0 0 1-.444.482 1.7 1.7 0 0 0-.37 1.266 1.69 1.69 0 0 0 .65 1.146c.088-.157.196-.301.323-.428a6.32 6.32 0 0 0-.084.398 10.697 10.697 0 0 0-.033 2.653c.285 4.188.574 8.373.865 12.555.081 1.185.163 2.367.271 3.548.211 2.287.513 4.565.905 6.834.018.103.039.208.066.302-2.457.78-4.643 2.19-5.562 4.546-.32.814-.464 1.7-.856 2.48-.431.857-1.14 1.54-1.61 2.379-.811 1.44-.847 3.207-.552 4.823.57 3.15 2.273 5.966 4.522 8.257h-.301a4.701 4.701 0 0 0-2.06.739c-4.757 2.779-7.476 8.742-6.484 14.186.196 1.064.537 2.143 1.248 2.954a4.674 4.674 0 0 0 2.195 1.345 7.68 7.68 0 0 0 1.619.3c3.708.303 7.299-1.416 11.016-1.56 1.231-.02 2.462.037 3.687.17 1.79.15 3.584.245 5.381.285 2.921.069 4.564-.71 6.427-2.891a7.86 7.86 0 0 0 1.137-1.791 203.02 203.02 0 0 0 4.604-.331l.018.174c.069.603.175 1.297.657 1.677.271.187.58.313.904.37 3.045.748 6.126 1.508 9.262 1.508 1.47-.03 2.94-.143 4.398-.338l5.508-.636c1.605.203 3.189.548 4.733 1.03 1.592.54 3.078 1.342 4.634 1.978 3.618 1.465 7.507 1.99 11.36 2.502.657.088 1.41.148 1.896-.301.627-.603.419-1.61.24-2.454a12.265 12.265 0 0 1-.168-1.043c2.6.685 5.144 1.568 7.61 2.64l.43.19c.127.658.733 1.182 1.315 1.89.19.3.414.577.666.827.288.187.615.304.956.344 4.067.757 8.22.945 12.34.557a12.582 12.582 0 0 1 2.543-.087c.624.085 1.24.223 1.84.413l3.487 1c2.572.736 5.204 1.48 7.872 1.315a10.136 10.136 0 0 0 1.607-.232c2.11-.49 4.076-1.667 5.09-3.563 1.431-2.578.77-5.75 0-8.583Z" fill="url(#a)" fill-rule="nonzero"/><path d="M37.69 195.805c-.636-1.447-1.239-3.111-.603-4.558a3.876 3.876 0 0 1 2.005-1.884 9.66 9.66 0 0 1 2.714-.669 37.832 37.832 0 0 1 8.82-.12c.215 1.694-.237 3.412-.626 5.049-.353 1.507-.555 1.73-2.11 1.809-1.008.054-9.961.907-10.2.373Z" fill="#FBBEBE" fill-rule="nonzero"/><path d="M64.537 186.044c23.81 0 43.111-5.398 43.111-12.058 0-6.659-19.302-12.058-43.111-12.058-23.81 0-43.111 5.399-43.111 12.058 0 6.66 19.301 12.058 43.11 12.058Z" fill="#464353" fill-rule="nonzero"/><path d="M64.537 186.044c23.81 0 43.111-5.398 43.111-12.058 0-6.659-19.302-12.058-43.111-12.058-23.81 0-43.111 5.399-43.111 12.058 0 6.66 19.301 12.058 43.11 12.058Z" fill="#000" fill-rule="nonzero" opacity=".1"/><path d="M72.267 110.332a13.414 13.414 0 0 1-6.916 6.282 17.358 17.358 0 0 1-5.49 1.043c-2.047.093-4.136-.039-6.06-.739-2.58-.934-4.724-2.845-6.33-5.073-1.608-2.228-2.714-4.772-3.676-7.337-.506-1.336-.989-2.759-.75-4.17 1.552-.352 3.253-.87 4.054-2.248.685-1.182.495-2.599.1-3.95a20.637 20.637 0 0 0-.37-1.127c-.302-.874-1.342-2.535-.604-3.283.461-.473 2.394-.714 3.06-1.022 2.053-.946 3.946-2.315 6.201-2.764 1.951-.389 3.965-.024 5.912.38.259.037.507.127.73.262.254.215.443.497.543.814.554 1.35.88 2.843 1.326 4.25.464 1.475 1.061 2.858 2.18 3.904.871.817 1.98 1.33 3.066 1.827l2.67 1.224c.476.178.907.457 1.264.817.35.48.558 1.048.603 1.64a15.32 15.32 0 0 1-1.513 9.27Z" fill="#FBBEBE" fill-rule="nonzero"/><path d="M63.985 91.65a13.868 13.868 0 0 1-16.783 2.49 20.466 20.466 0 0 0-.371-1.127c-.301-.874-1.341-2.535-.603-3.283.461-.473 2.394-.714 3.06-1.022 2.053-.946 3.946-2.315 6.201-2.764 1.95-.389 3.965-.024 5.912.38.259.037.507.127.73.262.254.215.442.497.543.814.54 1.35.865 2.843 1.31 4.25Z" fill="#000" fill-rule="nonzero" opacity=".1"/><path d="M53.985 95.307c7.659 0 13.868-6.208 13.868-13.867 0-7.658-6.209-13.866-13.868-13.866-7.659 0-13.868 6.208-13.868 13.866 0 7.659 6.209 13.867 13.868 13.867Z" fill="#FBBEBE" fill-rule="nonzero"/><path d="m96.237 126.444-1.14-6.903c-.576-3.464-1.17-6.994-2.78-10.114-1.058-2.044-2.737-3.991-5-4.395a4.858 4.858 0 0 1-1.303-.301c-.663-.32-1.025-1.037-1.535-1.568-1.314-1.363-3.455-1.384-5.215-2.077-1.556-.603-2.828-1.764-4.245-2.65-1.417-.886-3.18-1.507-4.748-.94-.253 2.698-.522 5.456-1.667 7.913a11.84 11.84 0 0 1-17.866 4.449c-2.686-2.022-4.407-5.143-5.21-8.407-.195-.796-.418-1.71-1.151-2.074-.793-.398-1.745.084-2.412.669-1.206 1.082-2.191 2.632-3.777 2.996-.573.133-1.206.106-1.682.453a3.83 3.83 0 0 0-.784 1.015c-.347.491-.81.887-1.35 1.153a3.607 3.607 0 0 1-1.734.373c-.552-.027-1.206-.154-1.583.247-.28.301-.302.772-.603 1.052-.407.395-1.067.202-1.634.181-1.073-.045-2.071.642-2.686 1.507-.615.865-.905 1.936-1.206 2.973 3.295 7.337 6.31 14.683 9.605 22.021.154.276.236.587.238.904a2.197 2.197 0 0 1-.41.904c-1.616 2.596-1.565 5.861-1.387 8.911.178 3.051.395 6.274-.967 9.008-.371.75-.854 1.438-1.206 2.188-.826 1.7-1.125 7.139-.642 8.965h68.157c-1.3-3.572-.805-10.74-.534-14.533.19-2.652-.301-5.302-.512-7.955-.461-5.417-.136-10.557-1.031-15.965Z" fill="#00DCD2" fill-rule="nonzero"/><path d="M19.704 134.342c-.12.873-.132 1.757-.036 2.632l.866 12.441c.08 1.173.162 2.342.27 3.512.209 2.27.52 4.522.905 6.77a1.203 1.203 0 0 0 1.236 1.173c3.814.808 7.754.775 11.646.555 5.94-.332 11.87-1.088 17.817-.959 1.532.033 3.317 0 4.245-1.206.929-1.205.389-3.156-.823-4.13-1.212-.973-2.858-1.205-4.413-1.205-2.06-.021-4.119.271-6.172.15-1.884-.111-3.726-.566-5.553-1.022l-5.125-1.275c.196-1.552.787-3.014 1.348-4.488 1.007-2.614 1.947-5.315 1.965-8.115.018-2.801-1.037-5.746-3.331-7.35-1.887-1.317-4.317-1.561-6.617-1.507-1.673.048-4.565-.353-6.093.301-1.209.531-1.908 2.539-2.135 3.723Z" fill="#FBBEBE" fill-rule="nonzero"/><path d="M99.725 162.787c1.004-.383 2.11-.244 3.186-.099 3.464.473 6.979.958 10.19 2.342 1.508.645 2.943 1.507 3.962 2.777.904 1.142 1.432 2.541 1.932 3.918l1.158 3.172c.44 1.205.886 2.435 1.01 3.717.361 3.795-2.234 7.373-5.499 9.345-3.265 1.971-7.109 2.673-10.853 3.409a345.17 345.17 0 0 0-11.233 2.412c-1.74.451-3.504.798-5.285 1.04-3.992.452-8.164-.214-11.957 1.106-1.507.528-2.987 1.311-4.552 1.676-1.04.219-2.09.379-3.147.479l-7.178.82a39.05 39.05 0 0 1-4.402.338c-3.135 0-6.22-.742-9.264-1.483a2.341 2.341 0 0 1-.905-.365c-.482-.38-.588-1.052-.657-1.661a288.248 288.248 0 0 1-.808-8.094c-.072-.877-.126-1.827.353-2.565.603-.905 1.779-1.188 2.852-1.363a74.449 74.449 0 0 1 13.771-.955c1.752-1.752 4.64-1.761 6.934-2.714.844-.387 1.66-.831 2.445-1.329a31.955 31.955 0 0 1 13.425-4.241c.927-.029 1.848-.16 2.746-.392 1.776-.552 3.395-2.053 5.219-1.685.226-.624.383-1.459.904-1.887.26-.221.579-.368.817-.603.504-.51.549-1.312.473-2.023-.075-.712-.244-1.441-.06-2.134.077-.263.19-.514.335-.745.904-1.562 2.27-2.363 4.088-2.213Z" fill="#464353" fill-rule="nonzero"/><path d="M99.725 162.787c1.004-.383 2.11-.244 3.186-.099 3.464.473 6.979.958 10.19 2.342 1.508.645 2.943 1.507 3.962 2.777.904 1.142 1.432 2.541 1.932 3.918l1.158 3.172c.44 1.205.886 2.435 1.01 3.717.361 3.795-2.234 7.373-5.499 9.345-3.265 1.971-7.109 2.673-10.853 3.409a345.17 345.17 0 0 0-11.233 2.412c-1.74.451-3.504.798-5.285 1.04-3.992.452-8.164-.214-11.957 1.106-1.507.528-2.987 1.311-4.552 1.676-1.04.219-2.09.379-3.147.479l-7.178.82a39.05 39.05 0 0 1-4.402.338c-3.135 0-6.22-.742-9.264-1.483a2.341 2.341 0 0 1-.905-.365c-.482-.38-.588-1.052-.657-1.661a288.248 288.248 0 0 1-.808-8.094c-.072-.877-.126-1.827.353-2.565.603-.905 1.779-1.188 2.852-1.363a74.449 74.449 0 0 1 13.771-.955c1.752-1.752 4.64-1.761 6.934-2.714.844-.387 1.66-.831 2.445-1.329a31.955 31.955 0 0 1 13.425-4.241c.927-.029 1.848-.16 2.746-.392 1.776-.552 3.395-2.053 5.219-1.685.226-.624.383-1.459.904-1.887.26-.221.579-.368.817-.603.504-.51.549-1.312.473-2.023-.075-.712-.244-1.441-.06-2.134.077-.263.19-.514.335-.745.904-1.562 2.27-2.363 4.088-2.213Z" fill="#000" fill-rule="nonzero" opacity=".05"/><path d="M40.464 197.668c-1.866 2.162-3.51 2.934-6.43 2.864a94.027 94.027 0 0 1-5.385-.28 30.12 30.12 0 0 0-3.69-.172c-3.72.145-7.31 1.848-11.022 1.549a7.815 7.815 0 0 1-1.619-.301 4.714 4.714 0 0 1-2.197-1.332c-.712-.805-1.053-1.872-1.249-2.927-.991-5.409 1.728-11.299 6.488-14.051a4.765 4.765 0 0 1 2.062-.733 4.898 4.898 0 0 1 2.087.458l.045.019a15.773 15.773 0 0 1 5.167 3.448 2.9 2.9 0 0 0 .79.636c.298.113.613.172.931.175l3.962.25c.67.02 1.338.112 1.99.275.718.25 1.417.553 2.092.904 2.131.953 4.495 1.206 6.798 1.574.222.012.434.097.603.241a.939.939 0 0 1 .187.392 7.686 7.686 0 0 1-1.61 7.011Z" fill="#3F3D56" fill-rule="nonzero"/><path d="M19.554 182.764a23.812 23.812 0 0 0-3.965 4.956 24.808 24.808 0 0 0-3.238 9.81 18.21 18.21 0 0 0-.033 3.801 4.714 4.714 0 0 1-2.197-1.332c-.712-.805-1.053-1.872-1.249-2.928-.991-5.408 1.728-11.298 6.488-14.05a4.765 4.765 0 0 1 2.062-.733 4.898 4.898 0 0 1 2.087.458l.045.018Z" fill="#000" fill-rule="nonzero" opacity=".1"/><path d="M96.276 190.265c2.216-.061 4.703-.172 6.331 1.32 1.552 1.411 1.757 3.738 1.86 5.833l.118 2.433c.036.742.066 1.507-.233 2.195-.53 1.205-1.986 1.787-3.316 1.718-1.33-.07-2.55-.651-3.765-1.176a52.965 52.965 0 0 0-10.25-3.228 55.48 55.48 0 0 1 .572-5.023c.184-1.154.215-3.086.986-4.045.817-1.013 1.882-.464 2.99-.277a24.06 24.06 0 0 0 4.707.25Z" fill="#FBBEBE" fill-rule="nonzero"/><path d="M37.718 165.82c0 .301-.474 0-.516-.323-.332-2.438-2.267-4.449-4.522-5.426-2.255-.976-4.824-1.028-7.266-.796-3.693.35-7.838 1.764-9.189 5.216-.32.807-.464 1.682-.856 2.456-.434.85-1.142 1.529-1.613 2.355-.81 1.429-.844 3.18-.551 4.796.787 4.311 3.735 7.997 7.307 10.551 3.573 2.553 7.748 4.078 11.912 5.453a206.653 206.653 0 0 0 33.765 8.064c1.857.28 3.732.539 5.51 1.136 1.593.534 3.082 1.333 4.637 1.96 3.618 1.453 7.51 1.971 11.366 2.481.657.084 1.41.144 1.896-.302.627-.582.42-1.595.242-2.43a13.066 13.066 0 0 1 1.54-9.272c.645-1.085 1.483-2.198 1.363-3.455-.145-1.465-1.604-2.502-3.057-2.737-1.453-.235-2.93.112-4.39.301-.503.067-1.052.109-1.492-.147a2.995 2.995 0 0 1-.585-.519 6.613 6.613 0 0 0-7.7-1.076c-.54.302-1.356-.371-1.917-.624l-6.34-2.87c-7.284-3.295-14.603-6.605-22.31-8.691a4.681 4.681 0 0 1-1.717-.714c-.383-.302-.658-.712-1.01-1.046-.77-.727-1.84-1.016-2.762-1.532-.922-.515-1.956-1.775-1.745-2.809Z" fill="#464353" fill-rule="nonzero"/><path d="M135.459 205.217c-1.013 1.878-2.979 3.047-5.089 3.53-.53.119-1.068.196-1.61.229-2.668.166-5.303-.573-7.875-1.302l-3.491-.983c-.6-.189-1.215-.326-1.839-.41a12.582 12.582 0 0 0-2.544.087 45.092 45.092 0 0 1-12.361-.554 2.183 2.183 0 0 1-.955-.341 4.769 4.769 0 0 1-.667-.817c-.95-1.142-1.971-1.809-.847-3.316.648-.874 1.851-1.311 2.355-2.315.503-1.004.181-2.43-.118-3.467-.407-1.432-1.745-2.05-2.225-3.364-.358-.992.244-2.143 1.152-2.683.907-.539 2.029-.582 3.075-.443 1.046.139 2.071.434 3.123.515 3.093.248 6.256-1.347 9.225-.449.655.199 1.273.516 1.936.691a6.438 6.438 0 0 0 3.868-.335c.434-.163.859-.359 1.281-.552a10.327 10.327 0 0 1 2.578-.931c2.897-.498 5.583 1.507 7.769 3.464.75.622 1.414 1.342 1.974 2.14.603.94.923 2.035 1.206 3.114.799 2.788 1.459 5.929.079 8.492Z" fill="#3F3D56" fill-rule="nonzero"/><path d="M135.459 205.217c-1.013 1.878-2.979 3.047-5.089 3.53a9.852 9.852 0 0 0 1.07-5.173c-.181-2.867-1.441-5.568-3.048-7.949a28.209 28.209 0 0 0-3.358-4.091c-.959-.965-2.138-1.731-3.169-2.614a10.327 10.327 0 0 1 2.578-.931c2.897-.498 5.583 1.507 7.769 3.463.75.623 1.414 1.343 1.974 2.141.603.94.923 2.035 1.206 3.114.787 2.806 1.447 5.947.067 8.51Z" fill="#000" fill-rule="nonzero" opacity=".1"/><path d="M24.754 112.219a3.112 3.112 0 0 0-.67 1.07 50.596 50.596 0 0 0-4.25 17.37 1.74 1.74 0 0 1-.196.841 3.687 3.687 0 0 1-.443.479 1.665 1.665 0 0 0 .283 2.412c.498-.938 1.689-1.242 2.747-1.324 5.068-.401 10.018 1.957 15.1 1.779-.358-1.239-.874-2.43-1.166-3.684-1.293-5.568 1.932-11.63-.045-16.993-.395-1.073-1.055-2.128-2.096-2.598a5.565 5.565 0 0 0-1.341-.356c-1.284-.232-3.84-1.224-5.083-.826-.458.148-.64.579-1.019.838-.576.371-1.341.506-1.82.992Z" fill="#00DCD2" fill-rule="nonzero"/><path d="M100.27 123.192H37.847a2.402 2.402 0 0 0-2.403 2.402v38.001a2.403 2.403 0 0 0 2.403 2.403h62.423a2.403 2.403 0 0 0 2.403-2.403v-38.001a2.402 2.402 0 0 0-2.403-2.402Z" fill="#3F3D56" fill-rule="nonzero"/><path d="M68.908 146.403a1.808 1.808 0 1 0 .002-3.616 1.808 1.808 0 0 0-.002 3.616Z" fill="#FFF" fill-rule="nonzero"/><path d="M44.404 58.934c-1.013.732-1.706 1.784-2.412 2.794-1.299 1.866-2.77 3.73-4.847 4.77-.787.394-1.685.693-2.207 1.38-.31.465-.51.993-.588 1.546a30.638 30.638 0 0 0-.621 5.909c0 .989.042 2.008.48 2.906.412.844 1.157 1.558 1.31 2.478.118.717-.147 1.432-.24 2.152-.094.72.069 1.574.735 1.917.36.135.734.224 1.116.263 2.004.446 2.677 2.797 2.981 4.742.682-.04.99-.82 1.13-1.456l2.09-9.288c.226-1.007.603-2.174 1.607-2.526.672-.232 1.408-.015 2.11.045 2.759.226 5.092-1.905 7.79-2.493a9.95 9.95 0 0 1 2.626-.175c2.129.105 4.604.98 5.056 2.966.075.323.12.709.422.868.301.16.618.025.935 0 1.35-.135 2.146 1.384 2.535 2.626l1.417 4.522c.21.684.567 1.49 1.308 1.577.685.084 1.266-.564 1.369-1.206.102-.642-.12-1.309-.268-1.954-.667-2.969.352-6.008.973-8.983.621-2.975.733-6.394-1.35-8.685-.757-.829-1.752-1.447-2.457-2.321-.657-.82-1.028-1.827-1.71-2.632-1.884-2.221-6.716-3.937-9.68-4.22-3.386-.368-8.872.491-11.61 2.478Z" fill="#3F3D56" fill-rule="nonzero"/><g opacity=".1" fill="#000" fill-rule="nonzero"><path d="M69.15 84.346c-.742-.09-1.098-.904-1.31-1.576l-1.416-4.522c-.389-1.245-1.185-2.764-2.536-2.626-.316.033-.657.157-.934 0-.277-.156-.347-.545-.422-.868-.452-1.99-2.927-2.86-5.056-2.966-.879-.058-1.762 0-2.626.172-2.698.603-5.031 2.713-7.79 2.493-.711-.058-1.447-.275-2.11-.043-1.016.35-1.38 1.508-1.607 2.527l-2.09 9.284c-.14.64-.448 1.42-1.13 1.456-.301-1.941-.977-4.292-2.981-4.739a4.736 4.736 0 0 1-1.116-.262 1.308 1.308 0 0 1-.582-.648c-.054.28-.117.56-.153.841-.09.718.069 1.574.735 1.917.36.135.734.224 1.116.263 2.004.446 2.677 2.797 2.981 4.742.682-.04.99-.82 1.13-1.456l2.09-9.288c.226-1.007.603-2.174 1.607-2.526.672-.233 1.408-.016 2.11.045 2.759.226 5.092-1.905 7.79-2.493a9.951 9.951 0 0 1 2.626-.175c2.129.106 4.604.98 5.056 2.966.075.323.12.709.422.868.301.16.618.025.934 0 1.351-.135 2.147 1.384 2.536 2.626.47 1.51.942 3.017 1.417 4.522.21.684.567 1.489 1.308 1.577.685.084 1.266-.564 1.369-1.206a4.093 4.093 0 0 0-.18-1.601 1.244 1.244 0 0 1-1.189.696ZM35.523 78.607c-.154-.92-.905-1.634-1.312-2.478a4.958 4.958 0 0 1-.446-1.809c0 .338-.03.675-.033 1.016 0 .989.042 2.008.48 2.906.334.684.886 1.287 1.163 1.983a4.54 4.54 0 0 0 .148-1.618ZM71.223 72.192c-.548 2.629-1.404 5.305-1.14 7.94.173-1.944.74-3.9 1.14-5.83a15.37 15.37 0 0 0 .35-4.47 18.444 18.444 0 0 1-.35 2.36Z"/></g><g opacity=".8"><path stroke="#3F3D56" stroke-width="3" d="M99.498 87.57h188.44M116.24 87.566s9.011 1.251 4.344-8.417c-4.667-9.667 12.662-7.837 12.662-7.837M176.254 87.566s9.011-1.248 4.344 8.42c-4.666 9.667 12.662 7.837 12.662 7.837M262.666 87.566s-9.014-1.248-4.344 8.42c4.669 9.667-12.662 7.837-12.662 7.837M245.66 103.82h-49.724"/><path d="M99.499 93.07a5.502 5.502 0 1 0 0-11.004 5.502 5.502 0 0 0 0 11.004Z" fill="#00DCD2" fill-rule="nonzero"/><path d="M133.339 76.735a5.502 5.502 0 1 0 0-11.003 5.502 5.502 0 0 0 0 11.003Z" fill="#3ACC6C" fill-rule="nonzero"/><path d="M133.339 93.07a5.502 5.502 0 1 0 0-11.003 5.502 5.502 0 0 0 0 11.004ZM155.178 93.07a5.502 5.502 0 1 0 0-11.003 5.502 5.502 0 0 0 0 11.004Z" fill="#00DCD2" fill-rule="nonzero"/><path d="M193.351 109.24a5.502 5.502 0 1 0 0-11.004 5.502 5.502 0 0 0 0 11.004ZM222.196 109.24a5.502 5.502 0 1 0 0-11.004 5.502 5.502 0 0 0 0 11.004Z" fill="#FF6584" fill-rule="nonzero"/><path d="M220.691 93.07a5.502 5.502 0 1 0 0-11.003 5.502 5.502 0 0 0 0 11.004ZM286.546 93.07a5.502 5.502 0 1 0 0-11.004 5.502 5.502 0 0 0 0 11.004ZM259.606 93.07a5.502 5.502 0 1 0 0-11.003 5.502 5.502 0 0 0 0 11.004ZM108.715 36.976h-18.46v12.721h18.46z" fill="#00DCD2" fill-rule="nonzero"/><path fill="#3ACC6C" fill-rule="nonzero" d="M142.637 36.976h-18.46v12.721h18.46z"/><path fill="#FF6584" fill-rule="nonzero" d="M202.504 36.976h-18.46v12.721h18.46z"/></g><path d="M26.032 90.243S3.492 80.765.537 97.867c0 0-1.54 2.664.603 4.865 0 0 .46-1.182 2.637.039.778.43 1.604.766 2.46 1.001a5.533 5.533 0 0 0 3.504-.187s7.413-.401 13.647-10.099c0 0 2.675-1.652 2.807-2.273l-4.468.302s.344 3.27-1.507 5.233c0 0 1.64-5.076.853-5.218-.16-.03-2.36.26-2.36.26s.57 5.688-2.412 8.63c0 0 2.767-5.785 1.564-8.528l-3.298.636s.905 5.984-2.357 9.462c0 0 2.683-6.15 1.646-9.272l-3.157 1.06s.76 5.852-1.968 8.743c0 0 2.381-7.419 1.26-8.44 0 0-2.84 1.15-3.446 1.808 0 0 .45 4.22-1.284 5.743 0 0 1.064-5.125.536-5.336 0 0-3.298 2.484-4.305 4.627 0 0 1.254-3.273 3.892-5.124 0 0-2.215-.374-3.919.551 0 0 1.14-2.173 4.718-1.142 0 0 2.65-1.836 3.18-1.809 0 0-3.385-1.507-5.83-1.32 0 0 2.623-1.508 6.657 1.01l3.15-1.137s-4.371-2.24-6.56-2.23c0 0 2.912-1.128 7.377 2.007l3.226-.657s-3.618-2.216-6.057-2.731c0 0 2.925-.465 6.989 2.577l2.203-.184s-2.668-1.573-3.476-1.956c-.808-.383-.771-.63-.771-.63a10.519 10.519 0 0 1 5.167 2.466s4.576-.09 4.594-.371ZM25.2 73.253s-7.983-18.47-19.484-10c0 0-2.43.706-2.412 3.226 0 0 .947-.44 1.547 1.529.22.698.523 1.367.904 1.992a4.522 4.522 0 0 0 2.186 1.884s4.634 3.986 13.868 1.776c0 0 2.532.54 2.963.25l-2.822-2.372s-1.66 2.14-3.886 2.242c0 0 3.868-2.08 3.482-2.613-.078-.109-1.552-1.188-1.552-1.188s-2.9 3.702-6.331 3.76c0 0 4.941-1.864 5.788-4.176l-2.321-1.507s-2.927 4.073-6.847 4.284c0 0 5.098-2.126 6.262-4.573L14.064 66.6s-2.882 3.919-6.141 4.066c0 0 5.643-3.05 5.556-4.295 0 0-2.342-.935-3.087-.88 0 0-2.132 2.758-4.034 2.68 0 0 3.555-2.44 3.362-2.864 0 0-3.377-.404-5.195.301 0 0 2.61-1.23 5.23-.826 0 0-1.103-1.486-2.637-1.899 0 0 1.917-.642 3.455 2.005 0 0 2.617.422 2.924.735 0 0-1.149-2.83-2.713-4.106 0 0 2.412.603 3.376 4.393l2.52 1.118s-1.32-3.822-2.628-5.061c0 0 2.372.988 3.24 5.396l2.292 1.444s-.886-3.377-2.041-5.074c0 0 2.002 1.393 2.68 5.514l1.417 1.145s-.69-2.454-.953-3.14c-.262-.688-.1-.815-.1-.815a8.636 8.636 0 0 1 1.656 4.425s2.785 2.545 2.957 2.391Z" opacity=".1" fill="#00DCD2" fill-rule="nonzero"/></g></svg>
