<svg width="1400" height="304" viewBox="0 0 1400 304" fill="none" xmlns="http://www.w3.org/2000/svg">
<path d="M3 210H54.5094L143 -28H91.8208L3 210Z" fill="black" fill-opacity="0.04"/>
<path d="M618 217H669.509L758 -21H706.821L618 217Z" fill="black" fill-opacity="0.04"/>
<path d="M106 210H157.509L246 -28H194.821L106 210Z" fill="black" fill-opacity="0.04"/>
<path d="M986 324H1037.51L1126 86H1074.82L986 324Z" fill="black" fill-opacity="0.04"/>
<path d="M1227 86H1278.51L1367 -152H1315.82L1227 86Z" fill="black" fill-opacity="0.04"/>
<path d="M1301 442H1352.51L1441 204H1389.82L1301 442Z" fill="black" fill-opacity="0.04"/>
<path d="M1087 324H1138.51L1227 86H1175.82L1087 324Z" fill="black" fill-opacity="0.04"/>
<path d="M719 217H770.509L859 -21H807.821L719 217Z" fill="black" fill-opacity="0.04"/>
<path d="M-34 448H17.5094L106 210H54.8208L-34 448Z" fill="black" fill-opacity="0.04"/>
<path d="M581 455H632.509L721 217H669.821L581 455Z" fill="black" fill-opacity="0.04"/>
<path d="M68 449H119.509L208 211H156.821L68 449Z" fill="black" fill-opacity="0.04"/>
<path d="M684 455H735.509L824 217H772.821L684 455Z" fill="black" fill-opacity="0.04"/>
<path d="M221 312H324.019L501 -164H398.642L221 312Z" fill="black" fill-opacity="0.04"/>
<path d="M692 564H795.019L972 88H869.642L692 564Z" fill="black" fill-opacity="0.04"/>
<path d="M972 88H1075.02L1252 -388H1149.64L972 88Z" fill="black" fill-opacity="0.04"/>
<path d="M1005 680H1108.02L1285 204H1183L1005 680Z" fill="black" fill-opacity="0.04"/>
<path d="M1286 205H1389.02L1566 -271H1463.64L1286 205Z" fill="black" fill-opacity="0.04"/>
<path d="M406 91H509.019L686 -385H583.642L406 91Z" fill="black" fill-opacity="0.04"/>
<path d="M415 342H518.019L695 -134H592.642L415 342Z" fill="black" fill-opacity="0.04"/>
<path d="M157 211H208.509L297 -27H245.821L157 211Z" fill="black" fill-opacity="0.04"/>
<path d="M770 218H821.509L910 -20H858.821L770 218Z" fill="black" fill-opacity="0.04"/>
</svg>
