<svg width="58" height="32" xmlns="http://www.w3.org/2000/svg"><g fill="#fff" fill-rule="evenodd"><path d="M35.861 7 29.5 24.054 23.139 7h-5.562l9.142 24.511h5.562L41.423 7zM4.06 24.258 0 27.204C1.577 29.54 4.744 32 8.996 32c4.78 0 8.516-2.93 8.516-7.487 0-2.979-1.735-5.25-5.304-6.886a237.639 237.639 0 0 0-2.906-1.29c-1.878-.793-2.79-1.684-2.79-2.75 0-1.108.862-2.178 2.628-2.178 1.236 0 2.368.581 3.454 1.775l3.86-2.801c-1.54-2.366-4.402-3.836-7.472-3.836-4.062 0-7.632 2.617-7.632 7.017 0 3.06 1.739 5.428 5.296 6.95l2.592 1.105c1.174.5 3.07 1.291 3.07 2.968s-1.66 2.543-3.453 2.543c-1.618 0-3.323-1.023-4.795-2.872M51.777 27.03c-1.187 0-2.183-.717-2.713-1.733-.4-.771-.417-1.997-.417-3.04v-10.18h5.67L56.21 7h-7.563V0h-5.19v23.048c.006 1.068.062 2.046.466 3.328 1.13 3.272 4.19 5.624 7.854 5.624 2.094 0 4.242-.805 5.82-2.283L54.346 26c-.686.6-1.634 1.028-2.57 1.028"/></g></svg>
