<svg width="32" height="32" xmlns="http://www.w3.org/2000/svg"><g fill="none" fill-rule="evenodd"><path fill="#000" d="M0 0h32v32H0z"/><path d="M2 23h3.145L10.71 8H7.565zM16.033 21.308a2.029 2.029 0 0 1-2.02-1.808l-.012-.176L14 9l1.365.204c.362.054.727.09 1.09.106l.364.01.126.001h2.438a3.21 3.21 0 0 1 2.614 1.341 3.224 3.224 0 0 1 2.62-1.341h2.564a10.69 10.69 0 0 0 1.454-.117L30 9v10.324a2.035 2.035 0 0 1-2.033 1.984h-4.388l-1.606 1.712-1.605-1.712h-4.335ZM28.61 10.612l-.042.005c-.456.058-.915.09-1.374.095h-2.576c-.496 0-.958.196-1.302.54-.335.334-.53.783-.539 1.265v7.399h5.19a.638.638 0 0 0 .642-.622v-8.682Zm-13.218 0v8.682a.638.638 0 0 0 .54.614l.102.008h5.144l.033-7.371v-.043a1.818 1.818 0 0 0-.535-1.255c-.303-.303-.7-.49-1.13-.527l-.162-.008h-2.576a12.094 12.094 0 0 1-.917-.046l-.457-.049-.042-.005Z" fill="#FFF" fill-rule="nonzero"/></g></svg>
